<svg width="71" height="15" viewBox="0 0 71 15" fill="none" xmlns="http://www.w3.org/2000/svg">
<path d="M9.264 6.88403C9.264 7.59869 9.09867 8.24936 8.768 8.83603C8.43733 9.41203 7.94667 9.87069 7.296 10.212C6.656 10.5534 5.87733 10.724 4.96 10.724H3.552V14.324H0V2.99603H4.96C6.34667 2.99603 7.408 3.34803 8.144 4.05203C8.89067 4.75603 9.264 5.70003 9.264 6.88403ZM4.56 7.92403C5.296 7.92403 5.664 7.57736 5.664 6.88403C5.664 6.19069 5.296 5.84403 4.56 5.84403H3.552V7.92403H4.56Z" fill="white"/>
<path d="M14.6786 14.436C13.772 14.436 12.956 14.2494 12.2306 13.876C11.5053 13.5027 10.9346 12.9694 10.5186 12.276C10.1133 11.572 9.91063 10.7507 9.91063 9.81203C9.91063 8.87336 10.1133 8.05736 10.5186 7.36403C10.9346 6.66003 11.5053 6.12136 12.2306 5.74803C12.956 5.37469 13.772 5.18803 14.6786 5.18803C15.5853 5.18803 16.4013 5.37469 17.1266 5.74803C17.852 6.12136 18.4173 6.66003 18.8226 7.36403C19.2386 8.05736 19.4466 8.87336 19.4466 9.81203C19.4466 10.7507 19.2386 11.572 18.8226 12.276C18.4173 12.9694 17.852 13.5027 17.1266 13.876C16.4013 14.2494 15.5853 14.436 14.6786 14.436ZM14.6786 11.364C15.0093 11.364 15.2866 11.236 15.5106 10.98C15.7346 10.7134 15.8466 10.324 15.8466 9.81203C15.8466 9.30003 15.7346 8.91603 15.5106 8.66003C15.2866 8.39336 15.0093 8.26003 14.6786 8.26003C14.348 8.26003 14.0706 8.39336 13.8466 8.66003C13.6226 8.91603 13.5106 9.30003 13.5106 9.81203C13.5106 10.324 13.6173 10.7134 13.8306 10.98C14.0546 11.236 14.3373 11.364 14.6786 11.364Z" fill="white"/>
<path d="M24.1145 6.96403C24.4772 6.44136 24.9198 6.02536 25.4425 5.71603C25.9652 5.39603 26.5092 5.23603 27.0745 5.23603V9.02803H26.0665C25.3945 9.02803 24.8985 9.14536 24.5785 9.38003C24.2692 9.61469 24.1145 10.0307 24.1145 10.628V14.324H20.5625V5.30003H24.1145V6.96403Z" fill="white"/>
<path d="M33.6473 11.3V14.324H32.3032C29.8286 14.324 28.5912 13.092 28.5912 10.628V8.26003H27.4713V5.30003H28.5912V3.12403H32.1432V5.30003H33.6152V8.26003H32.1432V10.692C32.1432 10.9054 32.1912 11.06 32.2873 11.156C32.3939 11.252 32.5646 11.3 32.7993 11.3H33.6473Z" fill="white"/>
<path d="M40.2 4.66003C40.008 4.63869 39.8747 4.62803 39.8 4.62803C39.5333 4.62803 39.3307 4.68136 39.192 4.78803C39.0533 4.88403 38.9573 5.05469 38.904 5.30003H40.2V8.26003H38.872V14.324H35.32V8.26003H34.36V5.30003H35.32C35.3413 4.12669 35.7093 3.22003 36.424 2.58003C37.1493 1.92936 38.1627 1.60403 39.464 1.60403C39.6133 1.60403 39.8587 1.61469 40.2 1.63603V4.66003Z" fill="white"/>
<path d="M45.4443 14.436C44.5376 14.436 43.7216 14.2494 42.9963 13.876C42.2709 13.5027 41.7002 12.9694 41.2842 12.276C40.8789 11.572 40.6763 10.7507 40.6763 9.81203C40.6763 8.87336 40.8789 8.05736 41.2842 7.36403C41.7002 6.66003 42.2709 6.12136 42.9963 5.74803C43.7216 5.37469 44.5376 5.18803 45.4443 5.18803C46.3509 5.18803 47.1669 5.37469 47.8923 5.74803C48.6176 6.12136 49.1829 6.66003 49.5882 7.36403C50.0042 8.05736 50.2122 8.87336 50.2122 9.81203C50.2122 10.7507 50.0042 11.572 49.5882 12.276C49.1829 12.9694 48.6176 13.5027 47.8923 13.876C47.1669 14.2494 46.3509 14.436 45.4443 14.436ZM45.4443 11.364C45.7749 11.364 46.0522 11.236 46.2762 10.98C46.5002 10.7134 46.6123 10.324 46.6123 9.81203C46.6123 9.30003 46.5002 8.91603 46.2762 8.66003C46.0522 8.39336 45.7749 8.26003 45.4443 8.26003C45.1136 8.26003 44.8363 8.39336 44.6123 8.66003C44.3883 8.91603 44.2762 9.30003 44.2762 9.81203C44.2762 10.324 44.3829 10.7134 44.5962 10.98C44.8202 11.236 45.1029 11.364 45.4443 11.364ZM47.8923 3.18803L43.7482 4.69203V2.32403L47.8923 0.564026V3.18803Z" fill="white"/>
<path d="M54.8801 2.48403V14.324H51.3281V2.48403H54.8801Z" fill="white"/>
<path d="M58.2764 4.58003C57.6577 4.58003 57.1617 4.41469 56.7884 4.08403C56.415 3.75336 56.2284 3.33736 56.2284 2.83603C56.2284 2.32403 56.415 1.90269 56.7884 1.57203C57.1617 1.23069 57.6577 1.06003 58.2764 1.06003C58.8844 1.06003 59.375 1.23069 59.7484 1.57203C60.1217 1.90269 60.3084 2.32403 60.3084 2.83603C60.3084 3.33736 60.1217 3.75336 59.7484 4.08403C59.375 4.41469 58.8844 4.58003 58.2764 4.58003ZM60.0364 5.30003V14.324H56.4844V5.30003H60.0364Z" fill="white"/>
<path d="M65.9286 14.436C65.022 14.436 64.206 14.2494 63.4806 13.876C62.7553 13.5027 62.1846 12.9694 61.7686 12.276C61.3633 11.572 61.1606 10.7507 61.1606 9.81203C61.1606 8.87336 61.3633 8.05736 61.7686 7.36403C62.1846 6.66003 62.7553 6.12136 63.4806 5.74803C64.206 5.37469 65.022 5.18803 65.9286 5.18803C66.8353 5.18803 67.6513 5.37469 68.3766 5.74803C69.102 6.12136 69.6673 6.66003 70.0726 7.36403C70.4886 8.05736 70.6966 8.87336 70.6966 9.81203C70.6966 10.7507 70.4886 11.572 70.0726 12.276C69.6673 12.9694 69.102 13.5027 68.3766 13.876C67.6513 14.2494 66.8353 14.436 65.9286 14.436ZM65.9286 11.364C66.2593 11.364 66.5366 11.236 66.7606 10.98C66.9846 10.7134 67.0966 10.324 67.0966 9.81203C67.0966 9.30003 66.9846 8.91603 66.7606 8.66003C66.5366 8.39336 66.2593 8.26003 65.9286 8.26003C65.598 8.26003 65.3206 8.39336 65.0966 8.66003C64.8726 8.91603 64.7606 9.30003 64.7606 9.81203C64.7606 10.324 64.8673 10.7134 65.0806 10.98C65.3046 11.236 65.5873 11.364 65.9286 11.364Z" fill="white"/>
</svg>
