<svg width="439" height="267" viewBox="0 0 439 267" fill="none" xmlns="http://www.w3.org/2000/svg">
<path d="M96.0736 31.505H1.03839V94.9303H96.0736V31.505Z" fill="white"/>
<path d="M96.0674 94.9365C96.0674 94.9365 96.0674 94.5385 96.0674 93.7796C96.0674 93.0208 96.0674 91.9136 96.0674 90.4333C96.0674 87.4974 96.0674 83.1932 96.0362 77.676C96.0362 66.6604 95.9925 50.8181 95.9613 31.505L96.0986 31.6418L1.07583 31.6791L1.24431 31.505C1.24431 54.1022 1.24431 75.5923 1.24431 94.949L1.08831 94.7935L69.5536 94.8681L89.1097 94.9116H96.1173H89.1784L1.08831 95.0298H0.932312V94.8743C0.932312 75.5301 0.932312 54.04 0.932312 31.4303V31.2624L96.2733 31.2997V31.4303C96.2421 50.7808 96.2171 66.648 96.2046 77.6885C96.2046 83.187 96.1734 87.485 96.1672 90.4146C96.1672 91.8638 96.1672 92.9772 96.1672 93.7361C96.1672 94.4949 96.0674 94.9365 96.0674 94.9365Z" fill="#E0E0E0"/>
<path d="M1.03839 37.1652C1.03839 37.0719 22.2918 36.9972 48.5123 36.9972C74.7328 36.9972 95.9925 37.0719 95.9925 37.1652C95.9925 37.2585 74.739 37.3393 48.5123 37.3393C22.2856 37.3393 1.03839 37.2647 1.03839 37.1652Z" fill="#E0E0E0"/>
<path d="M4.78239 34.3102C4.78239 34.5114 4.70219 34.7045 4.55942 34.8468C4.41665 34.9891 4.22302 35.069 4.02111 35.069C3.81921 35.069 3.62557 34.9891 3.48281 34.8468C3.34004 34.7045 3.25983 34.5114 3.25983 34.3102C3.25983 34.1089 3.34004 33.9159 3.48281 33.7736C3.62557 33.6313 3.81921 33.5513 4.02111 33.5513C4.22302 33.5513 4.41665 33.6313 4.55942 33.7736C4.70219 33.9159 4.78239 34.1089 4.78239 34.3102Z" fill="#E0E0E0"/>
<path d="M7.39695 34.3102C7.39695 34.4603 7.3523 34.607 7.26865 34.7318C7.185 34.8566 7.06611 34.9538 6.927 35.0113C6.78789 35.0687 6.63483 35.0837 6.48715 35.0544C6.33948 35.0252 6.20383 34.9529 6.09736 34.8468C5.9909 34.7406 5.91839 34.6054 5.88902 34.4582C5.85964 34.311 5.87472 34.1585 5.93234 34.0198C5.98996 33.8811 6.08754 33.7626 6.21273 33.6792C6.33792 33.5959 6.4851 33.5513 6.63567 33.5513C6.83757 33.5513 7.03121 33.6313 7.17398 33.7736C7.31675 33.9159 7.39695 34.1089 7.39695 34.3102Z" fill="#E0E0E0"/>
<path d="M9.96783 34.3102C9.96783 34.4603 9.92318 34.607 9.83953 34.7318C9.75588 34.8566 9.63699 34.9538 9.49788 35.0113C9.35878 35.0687 9.20571 35.0837 9.05803 35.0544C8.91036 35.0252 8.77471 34.9529 8.66825 34.8468C8.56178 34.7406 8.48928 34.6054 8.4599 34.4582C8.43053 34.311 8.4456 34.1585 8.50322 34.0198C8.56084 33.8811 8.65842 33.7626 8.78361 33.6792C8.9088 33.5959 9.05599 33.5513 9.20655 33.5513C9.40846 33.5513 9.60209 33.6313 9.74486 33.7736C9.88763 33.9159 9.96783 34.1089 9.96783 34.3102Z" fill="#E0E0E0"/>
<path d="M34.5534 43.7832H9.20655V69.0551H34.5534V43.7832Z" fill="#E0E0E0"/>
<path d="M83.0382 50.9238C83.0382 51.0171 73.1478 51.0917 60.9549 51.0917C48.7619 51.0917 38.8715 51.0171 38.8715 50.9238C38.8715 50.8305 48.7619 50.7559 60.9549 50.7559C73.1478 50.7559 83.0382 50.8305 83.0382 50.9238Z" fill="#E0E0E0"/>
<path d="M83.0382 55.6199C83.0382 55.7132 73.1478 55.7878 60.9549 55.7878C48.7619 55.7878 38.8715 55.7132 38.8715 55.6199C38.8715 55.5266 48.7619 55.452 60.9549 55.452C73.1478 55.452 83.0382 55.5266 83.0382 55.6199Z" fill="#E0E0E0"/>
<path d="M83.0382 60.316C83.0382 60.4093 73.1478 60.4839 60.9549 60.4839C48.7619 60.4839 38.8715 60.4093 38.8715 60.316C38.8715 60.2227 48.7619 60.1481 60.9549 60.1481C73.1478 60.1481 83.0382 60.2227 83.0382 60.316Z" fill="#E0E0E0"/>
<path d="M64.9734 65.0121C64.6348 65.0636 64.2925 65.0865 63.9501 65.0805L61.1546 65.1303C58.7896 65.1303 55.5386 65.18 51.9256 65.18C48.3126 65.18 45.0616 65.18 42.6966 65.1303L39.9011 65.0805C39.5566 65.0861 39.2122 65.0632 38.8715 65.0121C39.2122 64.961 39.5566 64.9381 39.9011 64.9437L42.6966 64.8939C45.0554 64.8628 48.3126 64.8442 51.9256 64.8442C55.5386 64.8442 58.7896 64.8442 61.1546 64.8939L63.9501 64.9437C64.2925 64.9378 64.6348 64.9607 64.9734 65.0121Z" fill="#E0E0E0"/>
<path d="M22.7037 77.5703H10.7915V89.4443H22.7037V77.5703Z" fill="#E0E0E0"/>
<path d="M44.3066 77.5703H32.3944V89.4443H44.3066V77.5703Z" fill="#E0E0E0"/>
<path d="M65.9157 77.5703H54.0035V89.4443H65.9157V77.5703Z" fill="#E0E0E0"/>
<path d="M87.5186 77.5703H75.6064V89.4443H87.5186V77.5703Z" fill="#E0E0E0"/>
<path d="M191.957 0.684872H110.095V33.8313H191.957V0.684872Z" fill="white"/>
<path d="M191.957 33.8313C191.957 33.8313 191.957 33.626 191.957 33.2093C191.957 32.7925 191.957 32.2389 191.957 31.4863C191.957 29.9748 191.957 27.7543 191.957 24.8931C191.957 19.1707 191.926 10.8981 191.908 0.635111L192.001 0.728412L110.139 0.765732L110.263 0.635111C110.263 12.2416 110.263 23.4501 110.263 33.7815L110.145 33.6571L168.838 33.7131L185.861 33.7504H190.422H185.892L110.12 33.8437H109.995V33.7193C109.995 23.3879 109.995 12.1794 109.995 0.572912V0.442291L192.076 0.485831V0.659992C192.076 10.9292 192.039 19.2205 192.026 24.9553C192.026 27.8041 192.026 30.0246 192.026 31.5299C192.026 32.2763 192.026 32.8423 192.026 33.2341C192.026 33.626 191.957 33.8313 191.957 33.8313Z" fill="#E0E0E0"/>
<path d="M110.176 5.15705C110.176 5.08241 128.472 5.02643 151.036 5.02643C173.599 5.02643 191.908 5.08241 191.908 5.15705C191.908 5.23169 173.612 5.28767 151.036 5.28767C128.459 5.28767 110.176 5.22547 110.176 5.15705Z" fill="#E0E0E0"/>
<path d="M113.602 3.14799C113.602 3.2635 113.567 3.37643 113.504 3.47282C113.44 3.5692 113.349 3.64482 113.242 3.69031C113.136 3.7358 113.018 3.74918 112.904 3.72879C112.79 3.7084 112.685 3.65513 112.601 3.57557C112.517 3.49602 112.458 3.39366 112.432 3.28116C112.405 3.16866 112.413 3.05095 112.453 2.94258C112.493 2.83422 112.564 2.73995 112.657 2.67144C112.751 2.60293 112.862 2.56317 112.978 2.55709C113.138 2.55689 113.292 2.61814 113.408 2.72814C113.524 2.83815 113.594 2.98848 113.602 3.14799Z" fill="#EBEBEB"/>
<path d="M115.636 3.14799C115.636 3.26486 115.601 3.3791 115.536 3.47628C115.471 3.57345 115.378 3.64919 115.27 3.69391C115.162 3.73864 115.043 3.75034 114.928 3.72754C114.813 3.70474 114.707 3.64846 114.624 3.56582C114.541 3.48318 114.485 3.37789 114.462 3.26327C114.439 3.14865 114.451 3.02984 114.496 2.92186C114.54 2.81389 114.616 2.7216 114.714 2.65667C114.811 2.59175 114.926 2.55709 115.043 2.55709C115.198 2.56463 115.344 2.62931 115.454 2.73853C115.564 2.84775 115.628 2.99371 115.636 3.14799Z" fill="#EBEBEB"/>
<path d="M117.052 3.74511C117.38 3.74511 117.645 3.48055 117.645 3.15421C117.645 2.82786 117.38 2.56331 117.052 2.56331C116.725 2.56331 116.46 2.82786 116.46 3.15421C116.46 3.48055 116.725 3.74511 117.052 3.74511Z" fill="#EBEBEB"/>
<path d="M136.827 10.5436H117.052V30.2548H136.827V10.5436Z" fill="#E0E0E0"/>
<path d="M186.304 15.8244C186.304 15.899 176.127 15.955 163.578 15.955C151.029 15.955 140.852 15.899 140.852 15.8244C140.852 15.7497 151.029 15.6937 163.578 15.6937C176.127 15.6937 186.304 15.7559 186.304 15.8244Z" fill="#E0E0E0"/>
<path d="M186.304 19.8425C186.304 19.9109 176.127 19.9669 163.578 19.9669C151.029 19.9669 140.852 19.9109 140.852 19.8425C140.852 19.774 151.029 19.7119 163.578 19.7119C176.127 19.7119 186.304 19.7678 186.304 19.8425Z" fill="#E0E0E0"/>
<path d="M170.08 23.8543C169.981 23.8692 169.88 23.8692 169.78 23.8543H168.932L165.812 23.8978L155.472 23.935L145.12 23.9474L142 23.904H141.145C141.046 23.9182 140.945 23.9182 140.846 23.904C140.945 23.8937 141.046 23.8937 141.145 23.904H142L145.12 23.8667L155.466 23.8233L165.806 23.8667L168.926 23.904H169.774C169.874 23.876 169.977 23.8593 170.08 23.8543Z" fill="#E0E0E0"/>
<path d="M412.816 44.9215C412.948 44.7274 413.103 44.5499 413.278 44.3928C413.646 44.032 414.095 43.578 414.626 43.0493C415.768 41.9173 417.365 40.3747 419.143 38.6953L419.187 38.658V38.8819C417.396 37.2274 415.786 35.7159 414.638 34.6087L413.284 33.2901C413.109 33.136 412.952 32.9628 412.816 32.7738C413.016 32.892 413.2 33.0341 413.365 33.1968L414.788 34.4408C415.973 35.5044 417.608 36.991 419.399 38.6455L419.524 38.7637L419.399 38.8757L419.362 38.913C417.583 40.6048 415.961 42.1225 414.775 43.2048L413.365 44.4861C413.196 44.6479 413.012 44.7936 412.816 44.9215Z" fill="#E0E0E0"/>
<path d="M399.007 32.7676C398.872 32.9573 398.717 33.1324 398.545 33.2901L397.216 34.6398C396.074 35.7657 394.477 37.3082 392.698 38.9938L392.655 39.0312V38.801C394.445 40.4618 396.055 41.9732 397.204 43.0804L398.558 44.399C398.734 44.5512 398.892 44.7246 399.026 44.9153C398.827 44.7931 398.643 44.6492 398.477 44.4861L397.054 43.2421C395.868 42.1785 394.233 40.6919 392.442 39.0312L392.318 38.9192L392.442 38.8073L392.48 38.7637C394.258 37.0781 395.881 35.5604 397.066 34.4719L398.464 33.203C398.627 33.0367 398.809 32.8905 399.007 32.7676Z" fill="#E0E0E0"/>
<path d="M402.557 47.7827C402.476 47.7516 403.924 43.6899 405.796 38.7077C407.668 33.7255 409.247 29.7074 409.328 29.7385C409.409 29.7696 407.955 33.8312 406.089 38.8135C404.224 43.7957 402.639 47.8138 402.557 47.7827Z" fill="#E0E0E0"/>
<path d="M428.535 56.4783C428.535 56.4783 428.535 56.2419 428.535 55.8003C428.535 55.3587 428.535 54.6931 428.535 53.8472C428.535 52.1305 428.535 49.6238 428.535 46.4392C428.535 40.0637 428.497 30.9514 428.466 19.9669L428.597 20.0975H383.669L383.825 19.942C383.825 33.1408 383.825 45.6057 383.825 56.4534L383.688 56.3166L416.136 56.385L425.333 56.4223H428.628H425.383L416.211 56.4596L383.656 56.528H383.519V56.385C383.519 45.5373 383.519 33.0724 383.519 19.8736V19.7181H428.741V19.942C428.741 30.9576 428.691 40.101 428.672 46.4952C428.672 49.6736 428.672 52.1616 428.672 53.8721C428.672 54.7118 428.672 55.3587 428.672 55.8065C428.672 56.2544 428.535 56.4783 428.535 56.4783Z" fill="#E0E0E0"/>
<path d="M428.89 25.3845C428.89 25.4716 418.738 25.54 406.22 25.54C393.703 25.54 383.557 25.4716 383.557 25.3845C383.557 25.2974 393.703 25.229 406.22 25.229C418.738 25.229 428.89 25.2974 428.89 25.3845Z" fill="#E0E0E0"/>
<path d="M387.232 22.7161C387.232 22.8391 387.195 22.9594 387.127 23.0617C387.058 23.164 386.961 23.2437 386.847 23.2908C386.733 23.3378 386.607 23.3502 386.486 23.3262C386.365 23.3022 386.254 23.2429 386.167 23.1559C386.079 23.0689 386.02 22.9581 385.996 22.8375C385.972 22.7168 385.984 22.5917 386.031 22.4781C386.079 22.3644 386.159 22.2673 386.261 22.1989C386.364 22.1306 386.485 22.0941 386.608 22.0941C386.773 22.0941 386.932 22.1596 387.049 22.2763C387.166 22.3929 387.232 22.5511 387.232 22.7161Z" fill="#E0E0E0"/>
<path d="M389.453 22.7161C389.453 22.8391 389.417 22.9594 389.348 23.0617C389.28 23.164 389.182 23.2437 389.068 23.2908C388.954 23.3378 388.829 23.3502 388.708 23.3262C388.587 23.3022 388.475 23.2429 388.388 23.1559C388.301 23.0689 388.241 22.9581 388.217 22.8375C388.193 22.7168 388.206 22.5917 388.253 22.4781C388.3 22.3644 388.38 22.2673 388.483 22.1989C388.585 22.1306 388.706 22.0941 388.829 22.0941C388.995 22.0941 389.154 22.1596 389.271 22.2763C389.388 22.3929 389.453 22.5511 389.453 22.7161Z" fill="#E0E0E0"/>
<path d="M391.656 22.7161C391.656 22.8391 391.62 22.9594 391.551 23.0617C391.482 23.164 391.385 23.2437 391.271 23.2908C391.157 23.3378 391.031 23.3502 390.91 23.3262C390.789 23.3022 390.678 23.2429 390.591 23.1559C390.504 23.0689 390.444 22.9581 390.42 22.8375C390.396 22.7168 390.408 22.5917 390.456 22.4781C390.503 22.3644 390.583 22.2673 390.685 22.1989C390.788 22.1306 390.909 22.0941 391.032 22.0941C391.198 22.0941 391.356 22.1596 391.473 22.2763C391.59 22.3929 391.656 22.5511 391.656 22.7161Z" fill="#E0E0E0"/>
<path d="M418.176 217.054C420.772 215.716 423.836 215.542 426.719 216.021C428.266 216.276 429.882 216.737 430.937 217.887C431.991 219.038 432.185 221.084 430.981 222.086C430.199 222.608 429.26 222.845 428.322 222.758C426.063 222.758 423.555 222.335 421.752 223.691C420.722 224.462 420.042 225.743 418.806 226.123C418.191 226.265 417.545 226.204 416.968 225.948C416.39 225.692 415.912 225.255 415.605 224.704C415.021 223.576 414.891 222.268 415.243 221.047C415.392 220.202 415.734 219.402 416.243 218.71C416.751 218.017 417.413 217.451 418.176 217.054Z" fill="#EBEBEB"/>
<path d="M412.223 205.603C413.814 207.861 416.903 207.114 418.332 205.733C419.761 204.353 420.366 202.35 420.922 200.446C422.17 196.092 423.418 191.514 422.513 187.073C422.286 185.727 421.692 184.468 420.797 183.435C420.346 182.922 419.768 182.538 419.121 182.319C418.473 182.101 417.779 182.057 417.109 182.191C415.549 182.601 414.613 184.119 413.883 185.562C411.824 189.833 410.745 194.507 410.726 199.246C410.726 201.448 410.975 203.755 412.223 205.578" fill="#EBEBEB"/>
<path d="M407.861 208.843C409.584 206.803 409.914 203.83 409.147 201.274C408.276 198.734 406.719 196.483 404.648 194.768C402.296 192.682 399.56 191.072 396.592 190.028C395.442 189.564 394.206 189.352 392.967 189.406C392.345 189.446 391.742 189.637 391.211 189.962C390.681 190.287 390.238 190.737 389.921 191.272C389.079 192.883 389.921 194.842 390.77 196.434C392.32 199.247 394.089 201.934 396.062 204.471C397.647 206.505 399.462 208.52 401.884 209.447C404.305 210.374 406.813 210.262 408.092 208.588" fill="#EBEBEB"/>
<path d="M412.117 239.719C412.2 239.381 412.248 239.035 412.261 238.687C412.336 237.941 412.423 237.001 412.535 235.882C412.648 234.762 412.841 233.3 413.159 231.77C413.53 230.114 414.033 228.489 414.663 226.912C415.283 225.339 416.123 223.86 417.159 222.521C417.995 221.435 419.06 220.545 420.279 219.915C421.114 219.504 422.009 219.227 422.931 219.094C423.277 219.081 423.62 219.031 423.954 218.945C423.608 218.911 423.259 218.911 422.912 218.945C421.955 219.015 421.019 219.258 420.148 219.66C418.856 220.269 417.722 221.167 416.835 222.285C415.756 223.644 414.886 225.156 414.251 226.769C413.614 228.368 413.117 230.018 412.766 231.702C412.499 233.079 412.316 234.47 412.217 235.869C412.13 237.064 412.092 238.028 412.073 238.693C412.05 239.036 412.065 239.38 412.117 239.719Z" fill="#6880FF"/>
<path d="M412.311 237.561C412.329 237.402 412.329 237.241 412.311 237.082V235.72C412.311 234.532 412.311 232.822 412.373 230.707C412.473 226.477 412.841 221.924 413.546 215.511C414.214 209.478 415.112 202.449 416.042 197.884C416.242 196.845 416.448 195.912 416.666 195.097C416.884 194.282 417.003 193.567 417.153 192.995C417.303 192.423 417.39 192.018 417.477 191.67C417.523 191.516 417.55 191.357 417.558 191.197C417.489 191.341 417.433 191.491 417.39 191.645C417.29 191.985 417.159 192.421 416.997 192.951C416.822 193.524 416.641 194.195 416.435 195.041C416.229 195.887 415.992 196.789 415.767 197.822C414.596 203.222 413.715 208.68 413.128 214.174C412.423 220.605 412.105 226.465 412.073 230.7C412.073 232.822 412.073 234.538 412.148 235.72C412.186 236.274 412.211 236.728 412.236 237.082C412.244 237.244 412.269 237.404 412.311 237.561Z" fill="#6880FF"/>
<path d="M412.342 226.266C412.373 225.791 412.373 225.316 412.342 224.841C412.292 223.927 412.161 222.602 411.905 220.985C411.594 219.097 411.177 217.228 410.657 215.387C410.043 213.111 409.254 210.886 408.298 208.731C406.659 204.759 404.313 201.116 401.372 197.977C400.862 197.441 400.318 196.938 399.743 196.472C399.494 196.26 399.269 196.049 399.044 195.881L398.42 195.446C398.04 195.159 397.637 194.903 397.216 194.68C398.602 195.768 399.919 196.939 401.16 198.189C404.006 201.349 406.29 204.972 407.911 208.899C408.851 211.042 409.645 213.244 410.289 215.493C410.81 217.317 411.237 219.167 411.568 221.035C411.867 222.639 412.036 223.946 412.142 224.854C412.169 225.329 412.235 225.801 412.342 226.266Z" fill="#6880FF"/>
<path d="M401.391 246.188L402.526 261.689H422.507L423.642 246.188H401.391Z" fill="#6880FF"/>
<path d="M426.02 240.074H399.456V246.182H426.02V240.074Z" fill="#E0E0E0"/>
<path d="M399.456 261.098V262.789H400.704H425.583V261.098H399.456Z" fill="#6880FF"/>
<path d="M401.927 265.775L400.704 262.789H424.635L423.206 265.775H401.927Z" fill="#6880FF"/>
<path d="M423.268 251.251C423.268 251.251 423.268 251.307 423.174 251.394L422.875 251.792L421.714 253.273L421.664 253.341L421.608 253.273C420.878 252.265 419.905 250.915 418.75 249.329H418.919L416.098 253.304L416.011 253.428L412.573 249.354H412.766L412.585 249.584L409.596 253.316L409.496 253.441L409.409 253.31C408.392 251.88 407.443 250.548 406.589 249.336H406.751L403.288 253.273L403.225 253.341L403.175 253.267L402.089 251.444L401.809 250.959C401.776 250.906 401.748 250.85 401.728 250.791C401.728 250.791 401.771 250.835 401.84 250.94L402.152 251.407L403.294 253.192H403.181L406.595 249.205L406.682 249.105L406.757 249.211L409.602 253.167H409.409L412.392 249.435L412.573 249.205L412.666 249.087L412.766 249.205L416.092 253.173H415.936L418.781 249.217L418.869 249.105L418.95 249.217L421.745 253.204H421.646L422.856 251.755L423.181 251.382C423.205 251.335 423.234 251.292 423.268 251.251Z" fill="#6880FF"/>
<path d="M423.917 246.082C423.917 246.15 418.925 246.206 412.735 246.206C406.545 246.206 401.553 246.15 401.553 246.082C401.553 246.014 406.545 245.958 412.735 245.958C418.925 245.958 423.917 246.014 423.917 246.082Z" fill="#6880FF"/>
<path d="M424.928 262.957C424.928 263.025 419.487 263.081 412.779 263.081C406.071 263.081 400.623 263.025 400.623 262.957C400.623 262.889 406.064 262.833 412.779 262.833C419.493 262.833 424.928 262.889 424.928 262.957Z" fill="#6880FF"/>
<path d="M54.1034 46.744H372.88C373.995 46.744 375.065 47.1857 375.854 47.9719C376.643 48.7581 377.086 49.8244 377.086 50.9363V253.814C377.086 256.218 376.128 258.523 374.423 260.222C372.718 261.922 370.405 262.877 367.994 262.877H58.384C57.188 262.88 56.003 262.648 54.8971 262.194C53.7912 261.74 52.7859 261.073 51.9391 260.231C51.0922 259.389 50.4203 258.389 49.9618 257.288C49.5033 256.187 49.2673 255.006 49.2673 253.814V51.5707C49.2665 50.9371 49.391 50.3096 49.6337 49.7241C49.8763 49.1385 50.2324 48.6063 50.6816 48.1581C51.1307 47.7098 51.6641 47.3541 52.2513 47.1115C52.8384 46.8689 53.4678 46.744 54.1034 46.744Z" fill="#455A64"/>
<path d="M35.5581 246.866H390.745V257.235C390.745 259.498 389.843 261.669 388.238 263.269C386.632 264.87 384.454 265.769 382.184 265.769H44.1194C41.8488 265.769 39.6712 264.87 38.0656 263.269C36.4601 261.669 35.5581 259.498 35.5581 257.235V246.866Z" fill="#455A64"/>
<path d="M367.383 55.3338H58.0658V237.829H367.383V55.3338Z" fill="#E0E0E0"/>
<path d="M180.869 246.866L185.274 253.851H247.294L251.387 246.866H180.869Z" fill="#263238"/>
<path d="M358.952 65.9078H67.2448V237.829H358.952V65.9078Z" fill="#263238"/>
<path d="M89.6277 232.778C89.4779 232.778 89.3531 196.167 89.3531 151.01C89.3531 105.853 89.4779 69.223 89.6277 69.223C89.7774 69.223 89.9022 105.834 89.9022 151.01C89.9022 196.186 89.7774 232.778 89.6277 232.778Z" fill="#E0E0E0"/>
<path d="M83.7434 84.0515C83.7434 84.2008 81.6218 84.3252 79.0072 84.3252C76.3926 84.3252 74.2648 84.2008 74.2648 84.0515C74.2648 83.9023 76.3864 83.7779 79.0072 83.7779C81.628 83.7779 83.7434 83.9023 83.7434 84.0515Z" fill="#E0E0E0"/>
<path d="M84.1053 74.7713C84.1053 74.9206 81.9837 75.045 79.3691 75.045C76.7545 75.045 74.6329 74.9206 74.6329 74.7713C74.6329 74.622 76.7545 74.4976 79.3691 74.4976C81.9837 74.4976 84.1053 74.622 84.1053 74.7713Z" fill="#E0E0E0"/>
<path d="M83.7434 94.0533C83.7434 94.2026 81.6218 94.327 79.0072 94.327C76.3926 94.327 74.2648 94.2026 74.2648 94.0533C74.2648 93.904 76.3864 93.7796 79.0072 93.7796C81.628 93.7796 83.7434 93.904 83.7434 94.0533Z" fill="#E0E0E0"/>
<path d="M83.7434 104.055C83.7434 104.211 81.6218 104.329 79.0072 104.329C76.3926 104.329 74.2648 104.211 74.2648 104.055C74.2648 103.9 76.3864 103.788 79.0072 103.788C81.628 103.788 83.7434 103.912 83.7434 104.055Z" fill="#E0E0E0"/>
<path d="M83.7434 114.063C83.7434 114.212 81.6218 114.337 79.0072 114.337C76.3926 114.337 74.2648 114.212 74.2648 114.063C74.2648 113.914 76.3864 113.789 79.0072 113.789C81.628 113.789 83.7434 113.908 83.7434 114.063Z" fill="#E0E0E0"/>
<path d="M83.7434 124.065C83.7434 124.214 81.6218 124.338 79.0072 124.338C76.3926 124.338 74.2648 124.214 74.2648 124.065C74.2648 123.916 76.3864 123.791 79.0072 123.791C81.628 123.791 83.7434 123.916 83.7434 124.065Z" fill="#E0E0E0"/>
<path d="M83.7434 134.067C83.7434 134.216 81.6218 134.34 79.0072 134.34C76.3926 134.34 74.2648 134.216 74.2648 134.067C74.2648 133.917 76.3864 133.793 79.0072 133.793C81.628 133.793 83.7434 133.917 83.7434 134.067Z" fill="#E0E0E0"/>
<path d="M83.7434 144.068C83.7434 144.224 81.6218 144.342 79.0072 144.342C76.3926 144.342 74.2648 144.224 74.2648 144.068C74.2648 143.913 76.3864 143.801 79.0072 143.801C81.628 143.801 83.7434 143.919 83.7434 144.068Z" fill="#E0E0E0"/>
<path d="M83.7434 154.076C83.7434 154.226 81.6218 154.344 79.0072 154.344C76.3926 154.344 74.2648 154.226 74.2648 154.076C74.2648 153.927 76.3864 153.803 79.0072 153.803C81.628 153.803 83.7434 153.921 83.7434 154.076Z" fill="#E0E0E0"/>
<path d="M83.7434 164.078C83.7434 164.227 81.6218 164.352 79.0072 164.352C76.3926 164.352 74.2648 164.227 74.2648 164.078C74.2648 163.929 76.3864 163.804 79.0072 163.804C81.628 163.804 83.7434 163.929 83.7434 164.078Z" fill="#E0E0E0"/>
<path d="M83.7434 174.08C83.7434 174.229 81.6218 174.353 79.0072 174.353C76.3926 174.353 74.2648 174.229 74.2648 174.08C74.2648 173.931 76.3864 173.806 79.0072 173.806C81.628 173.806 83.7434 173.931 83.7434 174.08Z" fill="#E0E0E0"/>
<path d="M83.7434 184.082C83.7434 184.237 81.6218 184.355 79.0072 184.355C76.3926 184.355 74.2648 184.237 74.2648 184.082C74.2648 183.926 76.3864 183.814 79.0072 183.814C81.628 183.814 83.7434 183.932 83.7434 184.082Z" fill="#E0E0E0"/>
<path d="M83.7434 194.102C83.7434 194.251 81.6218 194.369 79.0072 194.369C76.3926 194.369 74.2648 194.251 74.2648 194.102C74.2648 193.953 76.3864 193.828 79.0072 193.828C81.628 193.828 83.7434 193.934 83.7434 194.102Z" fill="#E0E0E0"/>
<path d="M83.7434 204.091C83.7434 204.241 81.6218 204.365 79.0072 204.365C76.3926 204.365 74.2648 204.241 74.2648 204.091C74.2648 203.942 76.3864 203.818 79.0072 203.818C81.628 203.818 83.7434 203.942 83.7434 204.091Z" fill="#E0E0E0"/>
<path d="M83.7434 214.093C83.7434 214.242 81.6218 214.367 79.0072 214.367C76.3926 214.367 74.2648 214.242 74.2648 214.093C74.2648 213.944 76.3864 213.819 79.0072 213.819C81.628 213.819 83.7434 213.944 83.7434 214.093Z" fill="#E0E0E0"/>
<path d="M83.7434 224.095C83.7434 224.25 81.6218 224.369 79.0072 224.369C76.3926 224.369 74.2648 224.25 74.2648 224.095C74.2648 223.939 76.3864 223.821 79.0072 223.821C81.628 223.821 83.7434 223.958 83.7434 224.095Z" fill="#E0E0E0"/>
<path d="M121.726 83.4606C121.726 83.6099 116.223 83.7343 109.433 83.7343C102.644 83.7343 97.1344 83.6099 97.1344 83.4606C97.1344 83.3113 102.638 83.1869 109.433 83.1869C116.229 83.1869 121.726 83.3113 121.726 83.4606Z" fill="#6880FF"/>
<path d="M121.726 224.095C121.726 224.25 116.223 224.369 109.433 224.369C102.644 224.369 97.1344 224.25 97.1344 224.095C97.1344 223.939 102.638 223.821 109.433 223.821C116.229 223.821 121.726 223.958 121.726 224.095Z" fill="#6880FF"/>
<path d="M155.978 104.055C155.978 104.211 145.675 104.329 132.971 104.329C120.266 104.329 109.964 104.211 109.964 104.055C109.964 103.9 120.26 103.788 132.971 103.788C145.682 103.788 155.978 103.912 155.978 104.055Z" fill="#6880FF"/>
<path d="M209.192 104.055C209.192 104.211 198.89 104.329 186.185 104.329C173.481 104.329 163.172 104.211 163.172 104.055C163.172 103.9 173.475 103.788 186.185 103.788C198.896 103.788 209.192 103.912 209.192 104.055Z" fill="#E0E0E0"/>
<path d="M188.856 114.063C188.856 114.212 173.674 114.337 154.948 114.337C136.222 114.337 121.04 114.212 121.04 114.063C121.04 113.914 136.216 113.789 154.948 113.789C173.68 113.789 188.856 113.908 188.856 114.063Z" fill="#E0E0E0"/>
<path d="M188.856 124.065C188.856 124.214 173.674 124.338 154.948 124.338C136.222 124.338 121.04 124.214 121.04 124.065C121.04 123.916 136.216 123.791 154.948 123.791C173.68 123.791 188.856 123.916 188.856 124.065Z" fill="#E0E0E0"/>
<path d="M235.538 154.076C235.538 154.226 220.349 154.344 201.629 154.344C182.909 154.344 167.715 154.226 167.715 154.076C167.715 153.927 182.897 153.803 201.629 153.803C220.362 153.803 235.538 153.921 235.538 154.076Z" fill="#E0E0E0"/>
<path d="M215.389 134.067C215.389 134.216 200.207 134.34 181.487 134.34C162.767 134.34 147.572 134.216 147.572 134.067C147.572 133.917 162.754 133.793 181.487 133.793C200.219 133.793 215.389 133.917 215.389 134.067Z" fill="#E0E0E0"/>
<path d="M298.262 134.067C298.262 134.216 283.08 134.34 264.36 134.34C245.64 134.34 230.446 134.216 230.446 134.067C230.446 133.917 245.628 133.793 264.36 133.793C283.093 133.793 298.262 133.917 298.262 134.067Z" fill="#E0E0E0"/>
<path d="M269.446 114.063C269.446 114.212 254.258 114.337 235.538 114.337C216.818 114.337 201.629 114.212 201.629 114.063C201.629 113.914 216.805 113.789 235.538 113.789C254.27 113.789 269.446 113.908 269.446 114.063Z" fill="#FAFAFA"/>
<path d="M316.289 154.076C316.289 154.226 301.108 154.344 282.381 154.344C263.655 154.344 248.473 154.226 248.473 154.076C248.473 153.927 263.649 153.803 282.381 153.803C301.114 153.803 316.289 153.921 316.289 154.076Z" fill="#FAFAFA"/>
<path d="M306.936 124.065C306.936 124.214 283.361 124.338 254.283 124.338C225.204 124.338 201.629 124.214 201.629 124.065C201.629 123.916 225.198 123.791 254.283 123.791C283.367 123.791 306.936 123.916 306.936 124.065Z" fill="#455A64"/>
<path d="M121.726 94.0533C121.726 94.2026 116.223 94.327 109.433 94.327C102.644 94.327 97.1344 94.2026 97.1344 94.0533C97.1344 93.904 102.638 93.7796 109.433 93.7796C116.229 93.7796 121.726 93.904 121.726 94.0533Z" fill="#FAFAFA"/>
<path d="M121.726 214.093C121.726 214.242 116.223 214.367 109.433 214.367C102.644 214.367 97.1344 214.242 97.1344 214.093C97.1344 213.944 102.638 213.819 109.433 213.819C116.229 213.819 121.726 213.944 121.726 214.093Z" fill="#FAFAFA"/>
<path d="M133.888 134.067C133.888 134.216 128.384 134.34 121.589 134.34C114.794 134.34 109.29 134.216 109.29 134.067C109.29 133.917 114.8 133.793 121.589 133.793C128.378 133.793 133.888 133.917 133.888 134.067Z" fill="#FAFAFA"/>
<path d="M331.028 134.067C331.028 134.216 325.525 134.34 318.736 134.34C311.946 134.34 306.437 134.216 306.437 134.067C306.437 133.917 311.94 133.793 318.736 133.793C325.531 133.793 331.028 133.917 331.028 134.067Z" fill="#6880FF"/>
<path d="M155.978 174.024C155.978 174.173 145.675 174.298 132.971 174.298C120.266 174.298 109.964 174.173 109.964 174.024C109.964 173.875 120.26 173.75 132.971 173.75C145.682 173.75 155.978 173.868 155.978 174.024Z" fill="#6880FF"/>
<path d="M209.192 174.024C209.192 174.173 198.89 174.298 186.185 174.298C173.481 174.298 163.172 174.173 163.172 174.024C163.172 173.875 173.475 173.75 186.185 173.75C198.896 173.75 209.192 173.868 209.192 174.024Z" fill="#E0E0E0"/>
<path d="M188.856 184.026C188.856 184.175 173.674 184.299 154.948 184.299C136.222 184.299 121.04 184.175 121.04 184.026C121.04 183.876 136.216 183.752 154.948 183.752C173.68 183.752 188.856 183.876 188.856 184.026Z" fill="#E0E0E0"/>
<path d="M188.856 194.027C188.856 194.177 173.674 194.301 154.948 194.301C136.222 194.301 121.04 194.177 121.04 194.027C121.04 193.878 136.216 193.754 154.948 193.754C173.68 193.754 188.856 193.878 188.856 194.027Z" fill="#E0E0E0"/>
<path d="M215.389 204.054C215.389 204.209 200.207 204.328 181.487 204.328C162.767 204.328 147.572 204.209 147.572 204.054C147.572 203.898 162.754 203.787 181.487 203.787C200.219 203.787 215.389 203.88 215.389 204.054Z" fill="#E0E0E0"/>
<path d="M298.262 204.054C298.262 204.209 283.08 204.328 264.36 204.328C245.64 204.328 230.446 204.209 230.446 204.054C230.446 203.898 245.628 203.787 264.36 203.787C283.093 203.787 298.262 203.88 298.262 204.054Z" fill="#E0E0E0"/>
<path d="M269.446 184.026C269.446 184.175 254.258 184.299 235.538 184.299C216.818 184.299 201.629 184.175 201.629 184.026C201.629 183.876 216.805 183.752 235.538 183.752C254.27 183.752 269.446 183.876 269.446 184.026Z" fill="#FAFAFA"/>
<path d="M306.936 194.027C306.936 194.177 283.361 194.301 254.283 194.301C225.204 194.301 201.629 194.177 201.629 194.027C201.629 193.878 225.198 193.754 254.283 193.754C283.367 193.754 306.936 193.878 306.936 194.027Z" fill="#455A64"/>
<path d="M133.888 204.054C133.888 204.209 128.384 204.328 121.589 204.328C114.794 204.328 109.29 204.209 109.29 204.054C109.29 203.898 114.8 203.787 121.589 203.787C128.378 203.787 133.888 203.88 133.888 204.054Z" fill="#FAFAFA"/>
<path d="M331.028 204.054C331.028 204.209 325.525 204.328 318.736 204.328C311.946 204.328 306.437 204.209 306.437 204.054C306.437 203.898 311.94 203.787 318.736 203.787C325.531 203.787 331.028 203.88 331.028 204.054Z" fill="#6880FF"/>
<path d="M337.587 253.192C337.587 253.279 274.787 253.354 197.336 253.354C119.885 253.354 57.0736 253.267 57.0736 253.192C57.0736 253.117 119.86 253.03 197.336 253.03C274.812 253.03 337.587 253.092 337.587 253.192Z" fill="#263238"/>
<path d="M46.5717 198.35C42.2042 193.995 36.7751 190.848 30.8181 189.218C24.861 187.587 18.5809 187.53 12.5949 189.051C22.7369 195.94 34.705 199.666 46.9773 199.756" fill="#6880FF"/>
<path d="M35.0464 157.671C36.4629 147.688 32.5504 136.461 25.0624 129.209C24.819 139.099 29.0061 150.226 35.0464 157.671Z" fill="#6880FF"/>
<path d="M41.043 176.524C35.6283 166.272 27.0079 158.059 16.4886 153.131C18.1329 158.877 21.2831 164.083 25.6151 168.213C29.9471 172.343 35.3046 175.248 41.1366 176.63" fill="#6880FF"/>
<path d="M42.2848 180.157C36.2382 180.331 30.1168 180.119 24.2699 178.577C18.423 177.034 12.832 174.067 8.92575 169.452C20.7717 169.489 32.3435 173.009 42.1912 179.572" fill="#6880FF"/>
<path d="M39.2147 168.177C42.2848 156.707 47.3267 148.777 56.3934 142.352C57.0864 147.99 55.7366 153.691 52.5871 158.426C49.4375 163.16 44.6954 166.618 39.2147 168.177Z" fill="#6880FF"/>
<path d="M62.0406 187.957C62.0635 184.611 61.0935 181.333 59.2527 178.535C57.4119 175.738 54.7823 173.545 51.6947 172.232C52.2001 178.154 56.8677 185.002 62.0406 187.957Z" fill="#6880FF"/>
<path d="M64.9297 178.285C65.3513 173.483 67.1398 168.902 70.0847 165.079C73.0296 161.257 77.0084 158.352 81.5531 156.707C79.4627 166.292 73.9091 174.273 64.9297 178.285Z" fill="#6880FF"/>
<path d="M60.5742 195.446C62.7083 192.404 66.1902 190.513 69.7907 189.574C73.3912 188.635 77.1539 188.548 80.8729 188.473C78.3392 191.214 75.2404 193.376 71.7893 194.81C68.3382 196.244 64.6166 196.917 60.88 196.783" fill="#6880FF"/>
<path d="M56.2561 219.884C63.0428 217.797 70.3677 218.321 76.7858 221.352C83.2039 224.384 88.2489 229.704 90.9256 236.261C78.352 233.91 65.9032 228.312 56.2561 219.884Z" fill="#6880FF"/>
<path d="M42.4346 211.394C44.525 217.558 44.1194 225.009 39.4706 230.321C38.5441 227.142 38.3293 223.799 38.8415 220.529C39.3537 217.258 40.5803 214.14 42.4346 211.394Z" fill="#6880FF"/>
<path d="M34.2602 207.966C33.923 211.94 32.5635 215.76 30.3128 219.057C28.0622 222.354 24.9965 225.017 21.412 226.788C21.2453 226.894 21.0586 226.966 20.8634 226.998C20.6681 227.03 20.4684 227.022 20.2763 226.975C19.7085 226.745 19.6523 225.973 19.7272 225.364C20.6382 217.471 26.5101 209.814 34.2602 207.948" fill="#6880FF"/>
<path d="M28.925 207.164C27.1497 209.076 24.9994 210.604 22.6074 211.653C20.2153 212.703 17.6325 213.251 15.0191 213.264C12.4056 213.278 9.81728 212.756 7.41451 211.731C5.01173 210.706 2.84576 209.201 1.05087 207.307C9.91167 206.343 20.1328 205.696 28.925 207.164Z" fill="#6880FF"/>
<path d="M27.5958 136.561C27.5958 136.561 27.5958 136.654 27.677 136.822L27.9515 137.568C28.2011 138.24 28.5755 139.198 29.0186 140.43C29.4616 141.661 30.0481 143.191 30.6846 144.964L31.708 147.8L32.8 150.991C34.3725 155.463 36.1134 160.831 37.9979 166.809C39.8824 172.786 41.7856 179.404 43.695 186.383C45.6045 193.362 47.2456 200.067 48.687 206.15C50.1285 212.233 51.2579 217.775 52.1128 222.44C52.3333 223.606 52.5413 224.713 52.7368 225.762C52.9323 226.811 53.1008 227.8 53.2422 228.729C53.5605 230.595 53.835 232.181 54.0222 233.493C54.2094 234.806 54.3779 235.801 54.484 236.51C54.5422 236.838 54.5859 237.099 54.615 237.294C54.6265 237.384 54.6453 237.474 54.6712 237.561C54.6795 237.47 54.6795 237.378 54.6712 237.287C54.6712 237.095 54.615 236.833 54.5713 236.504C54.4777 235.795 54.3467 234.775 54.172 233.475C53.9973 232.175 53.7539 230.557 53.4481 228.698C53.2984 227.771 53.1361 226.776 52.9677 225.724C52.7992 224.673 52.5745 223.56 52.3437 222.397C51.5137 217.726 50.3531 212.202 48.9865 206.082C47.62 199.961 45.904 193.281 44.032 186.29C42.16 179.298 40.1757 172.705 38.3099 166.734C36.4441 160.763 34.6408 155.395 33.0434 150.935C32.6273 149.816 32.2509 148.752 31.9139 147.744L30.8594 144.914C30.2353 143.148 29.6113 141.63 29.1433 140.399C28.6753 139.167 28.276 138.228 28.0139 137.562C27.8829 137.251 27.783 137.009 27.7144 136.828C27.6819 136.736 27.6423 136.647 27.5958 136.561Z" fill="#263238"/>
<path d="M76.2678 161.826C76.2678 161.826 76.2117 161.87 76.1118 161.969L75.6875 162.411C75.3194 162.803 74.7827 163.394 74.115 164.171C72.2147 166.351 70.4715 168.663 68.8984 171.088C66.5496 174.697 64.7142 178.614 63.4446 182.726C61.9782 187.353 61.0734 192.615 60.1686 198.12C58.3715 209.13 56.1563 218.994 54.5526 226.11C53.7477 229.662 53.0925 232.542 52.6307 234.557C52.4123 235.533 52.2438 236.305 52.1253 236.852C52.0691 237.101 52.0317 237.3 52.0005 237.474C51.9896 237.542 51.9896 237.611 52.0005 237.679C52.0005 237.679 52.0005 237.611 52.0629 237.48C52.1253 237.35 52.1565 237.132 52.2189 236.889L52.7929 234.607C53.2734 232.591 53.9661 229.724 54.8147 226.179C56.4745 219.057 58.7272 209.198 60.5306 198.189C61.4354 192.684 62.3277 187.434 63.7629 182.825C65.0131 178.736 66.8164 174.835 69.123 171.231C70.6779 168.799 72.3869 166.468 74.2398 164.252C74.8638 163.468 75.413 162.865 75.7624 162.461L76.1618 161.994L76.2678 161.826Z" fill="#263238"/>
<path d="M26.2792 206.791C26.3819 206.825 26.4891 206.844 26.5974 206.847L27.5147 206.953L28.1761 207.015L28.9624 207.133C29.524 207.214 30.1667 207.301 30.8344 207.45L31.9389 207.674L33.1182 207.966C33.9357 208.153 34.7843 208.452 35.6891 208.725C37.625 209.403 39.503 210.235 41.3051 211.213C43.0896 212.211 44.7738 213.378 46.3346 214.696C47.0118 215.282 47.6555 215.905 48.2627 216.562C48.8054 217.118 49.3158 217.703 49.7915 218.316C50.1951 218.815 50.5721 219.334 50.921 219.871C51.207 220.268 51.4655 220.684 51.6947 221.115L52.1627 221.905C52.275 222.086 52.3374 222.179 52.3499 222.173C52.3247 222.069 52.2825 221.97 52.2251 221.881L51.807 221.053C51.5953 220.621 51.3512 220.205 51.077 219.809C50.7425 219.257 50.3758 218.726 49.9787 218.217C49.5142 217.584 49.0098 216.982 48.4686 216.413C47.8595 215.758 47.2158 215.135 46.5405 214.547C44.9839 213.163 43.2904 211.939 41.4861 210.896C39.6682 209.906 37.7684 209.074 35.8077 208.408C34.8966 208.147 34.0417 207.854 33.2118 207.68L32.02 207.4L30.928 207.22C30.2229 207.077 29.5739 207.008 29.0061 206.946L28.2198 206.853L27.5521 206.822L26.6286 206.785C26.5125 206.769 26.3947 206.771 26.2792 206.791Z" fill="#263238"/>
<path d="M23.752 162.038C23.9378 162.266 24.1469 162.475 24.376 162.66L26.2168 164.246C27.7643 165.565 29.9234 167.356 32.3133 169.353C34.7032 171.349 36.8934 173.085 38.4784 174.378L40.3504 175.877C40.5762 176.068 40.8185 176.239 41.0742 176.387C40.8869 176.16 40.6779 175.952 40.4502 175.765L38.6282 174.198C37.0806 172.879 34.9278 171.088 32.5317 169.098C30.1355 167.107 27.9578 165.366 26.3728 164.072L24.5008 162.573C24.271 162.368 24.02 162.189 23.752 162.038Z" fill="#263238"/>
<path d="M21.568 173.719C21.568 173.812 26.1981 175.255 31.9576 176.953C37.7171 178.652 42.4221 179.958 42.447 179.871C42.472 179.784 37.8232 178.328 32.0574 176.63C26.2917 174.932 21.6054 173.632 21.568 173.719Z" fill="#263238"/>
<path d="M38.753 169.066C38.9381 168.864 39.0993 168.64 39.2334 168.401L40.4814 166.535C41.5173 164.967 42.9774 162.803 44.7434 160.545C46.5093 158.287 48.1754 156.284 49.4109 154.866L50.8835 153.193C51.0787 153.005 51.2524 152.797 51.4014 152.571C51.1737 152.73 50.9644 152.913 50.7774 153.118C50.3968 153.492 49.8664 154.039 49.2237 154.729C47.932 156.104 46.216 158.076 44.4626 160.358C42.7091 162.641 41.2552 164.818 40.263 166.423C39.7701 167.225 39.3832 167.885 39.1273 168.345C38.9805 168.573 38.8552 168.815 38.753 169.066Z" fill="#263238"/>
<path d="M54.9083 175.554C55.2341 176.173 55.5988 176.772 56.0003 177.345C56.6992 178.434 57.6414 179.945 58.6149 181.656C59.5883 183.366 60.4182 184.946 60.9986 186.103C61.2859 186.746 61.6153 187.369 61.9845 187.969C61.7937 187.294 61.5366 186.64 61.2169 186.016C60.6866 184.834 59.8941 183.229 58.9081 181.506C57.9222 179.784 56.9488 178.285 56.2 177.227C55.8242 176.629 55.3917 176.069 54.9083 175.554Z" fill="#263238"/>
<path d="M60.437 195.763C60.437 195.806 61.348 195.377 62.8019 194.724C64.2558 194.071 66.2838 193.219 68.5739 192.423C70.864 191.626 72.9856 191.023 74.5331 190.631C76.0806 190.239 77.0291 190.009 77.0291 189.978C76.7962 189.969 76.563 189.992 76.3365 190.047C75.8934 190.115 75.257 190.233 74.4645 190.401C70.3875 191.29 66.4337 192.669 62.6896 194.506C61.972 194.861 61.3979 195.166 61.011 195.39C60.8045 195.489 60.6116 195.614 60.437 195.763Z" fill="#263238"/>
<path d="M56.0877 219.921C56.0877 219.921 56.1813 219.971 56.3747 220.021L57.2109 220.232L60.3309 220.948C63.742 221.659 67.114 222.545 70.4334 223.603C73.7381 224.705 76.9024 226.187 79.8621 228.02C80.9915 228.735 81.8714 229.369 82.4641 229.823C82.7625 230.071 83.0751 230.302 83.4001 230.514C83.4001 230.514 83.3315 230.427 83.188 230.29C83.0445 230.153 82.8323 229.954 82.564 229.718C81.7499 229.038 80.8979 228.404 80.0118 227.821C77.0691 225.915 73.8943 224.391 70.5645 223.286C67.233 222.219 63.8381 221.359 60.3995 220.711L57.2795 220.089C56.8862 220.008 56.4881 219.952 56.0877 219.921Z" fill="#263238"/>
<path d="M40.3504 225.88C40.444 225.88 40.9744 222.639 41.5984 218.615C42.2224 214.591 42.5968 211.313 42.5032 211.3C42.4096 211.288 41.8792 214.541 41.2552 218.565C40.6312 222.59 40.288 225.868 40.3504 225.88Z" fill="#263238"/>
<path d="M23.9642 219.952C24.4954 219.403 24.9894 218.819 25.443 218.204C26.3291 217.104 27.5522 215.592 28.9437 213.944C30.3352 212.295 31.6144 210.834 32.5504 209.776C33.0864 209.224 33.5866 208.638 34.048 208.022C33.8724 208.135 33.7129 208.271 33.5738 208.427C33.2867 208.694 32.8874 209.105 32.3944 209.615C31.4147 210.635 30.0981 212.103 28.7066 213.726C27.315 215.35 26.117 216.917 25.2808 218.08C24.8565 218.652 24.5258 219.119 24.3074 219.442C24.1703 219.596 24.0548 219.768 23.9642 219.952Z" fill="#263238"/>
<path d="M67.3259 235.098V243.165H65.2979L58.1032 265.806H42.1475L35.1774 243.389L32.4755 243.165V235.098H67.3259Z" fill="#6880FF"/>
<path d="M67.3259 235.098V243.165H65.2979L58.1032 265.806H42.1475L35.1774 243.389L32.4755 243.165V235.098H67.3259Z" fill="black"/>
<path d="M33.8234 243.389C33.8234 243.483 40.8745 243.557 49.5606 243.557C58.2467 243.557 65.2979 243.483 65.2979 243.389C65.2979 243.296 58.253 243.221 49.5606 243.221C40.8683 243.221 33.8234 243.296 33.8234 243.389Z" fill="#263238"/>
<path d="M22.348 191.483C22.6807 191.603 23.0231 191.695 23.3714 191.757L26.1731 192.435C28.5318 193.013 31.7891 193.897 35.2897 195.079C38.7904 196.26 41.9291 197.504 44.163 198.462L46.8026 199.613C47.1181 199.771 47.4457 199.904 47.7822 200.011C47.4897 199.813 47.1808 199.64 46.8587 199.495C46.2347 199.184 45.3674 198.755 44.2566 198.251C41.3663 196.939 38.411 195.774 35.4021 194.761C32.3909 193.752 29.3292 192.898 26.2293 192.205C25.0374 191.944 24.0702 191.751 23.3963 191.639C23.0522 191.556 22.7014 191.504 22.348 191.483Z" fill="#263238"/>
<path d="M39.1211 255.96C39.1211 256.053 44.0694 256.128 50.1659 256.128C56.2624 256.128 61.2045 256.053 61.2045 255.96C61.2045 255.867 56.2624 255.792 50.1659 255.792C44.0694 255.792 39.1211 255.867 39.1211 255.96Z" fill="#FAFAFA"/>
<path d="M38.5034 254.088C38.5034 254.181 43.745 254.256 50.2034 254.256C56.6618 254.256 61.9034 254.181 61.9034 254.088C61.9034 253.994 56.668 253.92 50.2034 253.92C43.7387 253.92 38.5034 253.994 38.5034 254.088Z" fill="#FAFAFA"/>
<path d="M428.703 265.931C428.703 266.024 333.58 266.099 216.268 266.099C98.9565 266.099 3.80895 266.024 3.80895 265.931C3.80895 265.837 98.944 265.769 216.256 265.769C333.568 265.769 428.703 265.844 428.703 265.931Z" fill="#263238"/>
<path d="M370.409 29.3528H203.183V132.58H343.958L352.675 152.565L360.4 132.58H370.409V29.3528Z" fill="#FAFAFA"/>
<path d="M370.384 29.3466C370.384 30.3481 370.428 69.1546 370.509 132.599V132.723H360.4L360.519 132.642C358.104 138.906 355.495 145.654 352.8 152.627L352.681 152.944L352.544 152.633C349.811 146.376 346.859 139.602 343.808 132.648L343.939 132.735H203.021V132.574C203.021 95.7825 203.021 60.8696 203.021 29.3218V29.1787L370.403 29.3218L203.171 29.471L203.32 29.3218C203.32 60.8509 203.32 95.7638 203.32 132.574L203.158 132.412H344.014L344.051 132.499L352.787 152.49H352.531L360.281 132.524L360.313 132.437H370.384L370.259 132.561C370.384 69.1297 370.384 30.3481 370.384 29.3466Z" fill="#263238"/>
<path d="M370.322 39.423C370.322 39.5474 332.956 39.6532 286.88 39.6532C240.804 39.6532 203.433 39.5474 203.433 39.423C203.433 39.2986 240.792 39.224 286.88 39.224C332.969 39.224 370.322 39.2986 370.322 39.423Z" fill="#263238"/>
<path d="M212.069 34.87C212.069 35.1409 211.988 35.4057 211.837 35.6309C211.686 35.856 211.471 36.0314 211.22 36.1348C210.969 36.2382 210.692 36.2649 210.426 36.2116C210.16 36.1583 209.915 36.0274 209.723 35.8354C209.531 35.6434 209.401 35.399 209.349 35.1331C209.297 34.8673 209.325 34.5919 209.43 34.342C209.535 34.0921 209.711 33.8788 209.938 33.7292C210.165 33.5796 210.431 33.5004 210.702 33.5016C211.065 33.5032 211.413 33.6481 211.669 33.9046C211.925 34.161 212.069 34.5081 212.069 34.87Z" fill="#263238"/>
<path d="M217.03 34.87C217.03 35.1409 216.949 35.4057 216.798 35.6309C216.647 35.856 216.432 36.0314 216.181 36.1348C215.93 36.2382 215.653 36.2649 215.387 36.2116C215.12 36.1583 214.876 36.0274 214.684 35.8354C214.492 35.6434 214.362 35.399 214.31 35.1331C214.258 34.8673 214.286 34.5919 214.39 34.342C214.495 34.0921 214.672 33.8788 214.899 33.7292C215.125 33.5796 215.391 33.5004 215.663 33.5016C216.026 33.5032 216.374 33.6481 216.63 33.9046C216.886 34.161 217.03 34.5081 217.03 34.87Z" fill="#263238"/>
<path d="M221.991 34.87C221.991 35.1406 221.91 35.4052 221.759 35.6302C221.608 35.8553 221.394 36.0307 221.143 36.1342C220.892 36.2378 220.616 36.2649 220.35 36.2121C220.084 36.1593 219.839 36.029 219.647 35.8376C219.455 35.6462 219.324 35.4024 219.271 35.137C219.218 34.8715 219.246 34.5964 219.349 34.3463C219.453 34.0963 219.629 33.8826 219.855 33.7322C220.081 33.5818 220.346 33.5016 220.618 33.5016C220.982 33.5016 221.331 33.6458 221.588 33.9024C221.846 34.159 221.991 34.5071 221.991 34.87Z" fill="#263238"/>
<path d="M221.423 57.884L217.454 59.4141L221.423 60.938V61.8648L216.431 59.8931V58.9414L221.423 56.9634V57.884Z" fill="#263238"/>
<path d="M225.554 53.9343H226.527L222.833 64.4336H221.872L225.554 53.9343Z" fill="#263238"/>
<path d="M231.856 58.9414V59.8993L226.864 61.871V60.9442L230.845 59.4203L226.864 57.884V56.9572L231.856 58.9414Z" fill="#263238"/>
<path d="M233.141 62.6174C233.14 62.5173 233.158 62.4179 233.196 62.325C233.234 62.2322 233.29 62.1479 233.361 62.0771C233.432 62.0063 233.516 61.9504 233.609 61.9129C233.702 61.8754 233.802 61.8569 233.903 61.8586C234.002 61.8577 234.101 61.8768 234.192 61.9149C234.284 61.9529 234.367 62.0091 234.436 62.08C234.506 62.1509 234.56 62.2351 234.596 62.3274C234.632 62.4198 234.649 62.5184 234.645 62.6174C234.649 62.717 234.632 62.8162 234.596 62.9092C234.56 63.0023 234.506 63.0872 234.437 63.1591C234.368 63.231 234.285 63.2884 234.193 63.3278C234.101 63.3672 234.003 63.3879 233.903 63.3887C233.802 63.3887 233.702 63.3687 233.608 63.3298C233.515 63.2909 233.431 63.2338 233.36 63.162C233.289 63.0903 233.233 63.0051 233.196 62.9116C233.158 62.8181 233.14 62.7181 233.141 62.6174Z" fill="#263238"/>
<path d="M235.687 62.6174C235.685 62.5171 235.703 62.4172 235.74 62.324C235.777 62.2308 235.833 62.1461 235.905 62.0751C235.976 62.0041 236.061 61.9483 236.154 61.9111C236.248 61.8739 236.348 61.856 236.449 61.8586C236.547 61.8585 236.645 61.8783 236.736 61.9167C236.827 61.9552 236.91 62.0115 236.978 62.0823C237.047 62.1531 237.101 62.2369 237.136 62.3289C237.172 62.4208 237.188 62.519 237.185 62.6174C237.188 62.7165 237.172 62.8152 237.136 62.9078C237.101 63.0005 237.048 63.0851 236.979 63.1569C236.91 63.2287 236.828 63.2862 236.737 63.326C236.646 63.3658 236.548 63.3871 236.449 63.3887C236.347 63.3896 236.247 63.3701 236.153 63.3315C236.06 63.2929 235.975 63.2359 235.904 63.1639C235.833 63.092 235.777 63.0065 235.74 62.9126C235.703 62.8187 235.685 62.7183 235.687 62.6174Z" fill="#263238"/>
<path d="M238.227 62.6174C238.224 62.5171 238.242 62.4172 238.28 62.324C238.317 62.2308 238.373 62.1461 238.444 62.0751C238.516 62.0041 238.6 61.9483 238.694 61.9111C238.787 61.8739 238.888 61.856 238.988 61.8586C239.087 61.8585 239.185 61.8783 239.276 61.9167C239.367 61.9552 239.449 62.0115 239.518 62.0823C239.587 62.1531 239.64 62.2369 239.676 62.3289C239.711 62.4208 239.728 62.519 239.725 62.6174C239.728 62.7165 239.711 62.8152 239.676 62.9078C239.641 63.0005 239.587 63.0851 239.519 63.1569C239.45 63.2287 239.368 63.2862 239.277 63.326C239.186 63.3658 239.088 63.3871 238.988 63.3887C238.887 63.3896 238.787 63.3701 238.693 63.3315C238.599 63.2929 238.515 63.2359 238.444 63.1639C238.373 63.092 238.317 63.0065 238.28 62.9126C238.242 62.8187 238.225 62.7183 238.227 62.6174Z" fill="#263238"/>
<path d="M327.016 72.6316C327.016 72.756 302.299 72.8555 271.811 72.8555C241.322 72.8555 216.599 72.756 216.599 72.6316C216.599 72.5072 241.316 72.4015 271.811 72.4015C302.306 72.4015 327.016 72.501 327.016 72.6316Z" fill="#455A64"/>
<path d="M345.05 72.955C345.05 73.0794 342.678 73.1852 339.746 73.1852C336.813 73.1852 334.442 73.0794 334.442 72.955C334.442 72.8307 336.819 72.7249 339.746 72.7249C342.672 72.7249 345.05 72.812 345.05 72.955Z" fill="#263238"/>
<path d="M360.556 72.955C360.556 73.0794 357.96 73.1852 354.765 73.1852C351.57 73.1852 348.968 73.0794 348.968 72.955C348.968 72.8307 351.564 72.7249 354.765 72.7249C357.966 72.7249 360.556 72.812 360.556 72.955Z" fill="#263238"/>
<path d="M286.912 81.9056C286.912 82.03 271.199 82.1295 251.818 82.1295C232.436 82.1295 216.73 82.03 216.73 81.9056C216.73 81.7812 232.436 81.6755 251.818 81.6755C271.199 81.6755 286.912 81.775 286.912 81.9056Z" fill="#455A64"/>
<path d="M286.406 116.507C286.406 116.632 270.694 116.731 251.319 116.731C231.943 116.731 216.225 116.632 216.225 116.507C216.225 116.383 231.937 116.277 251.319 116.277C270.7 116.277 286.406 116.383 286.406 116.507Z" fill="#455A64"/>
<path d="M312.408 81.9056C312.408 82.03 308.134 82.1295 302.861 82.1295C297.588 82.1295 293.314 82.03 293.314 81.9056C293.314 81.7812 297.588 81.6755 302.861 81.6755C308.134 81.6755 312.408 81.775 312.408 81.9056Z" fill="#263238"/>
<path d="M312.208 116.507C312.208 116.632 307.934 116.731 302.661 116.731C297.388 116.731 293.114 116.632 293.114 116.507C293.114 116.383 297.388 116.277 302.661 116.277C307.934 116.277 312.208 116.383 312.208 116.507Z" fill="#263238"/>
<path d="M221.335 86.6204C221.335 86.7448 220.275 86.8505 218.964 86.8505C217.654 86.8505 216.599 86.7448 216.599 86.6204C216.599 86.496 217.66 86.3965 218.964 86.3965C220.268 86.3965 221.335 86.496 221.335 86.6204Z" fill="#6880FF"/>
<path d="M237.653 86.7199C237.653 86.8443 235.35 86.9438 232.511 86.9438C229.672 86.9438 227.369 86.8443 227.369 86.7199C227.369 86.5955 229.672 86.4898 232.511 86.4898C235.35 86.4898 237.653 86.5955 237.653 86.7199Z" fill="#263238"/>
<path d="M248.08 86.7199C248.08 86.8443 246.108 86.9438 243.675 86.9438C241.241 86.9438 239.269 86.8443 239.269 86.7199C239.269 86.5955 241.241 86.4898 243.675 86.4898C246.108 86.4898 248.08 86.5955 248.08 86.7199Z" fill="#263238"/>
<path d="M261.321 86.7199C261.321 86.8443 259.312 86.9438 256.835 86.9438C254.357 86.9438 252.342 86.8443 252.342 86.7199C252.342 86.5955 254.351 86.4898 256.835 86.4898C259.318 86.4898 261.321 86.5955 261.321 86.7199Z" fill="#263238"/>
<path d="M272.909 86.7199C272.909 86.8443 271.081 86.9438 268.828 86.9438C266.575 86.9438 264.747 86.8443 264.747 86.7199C264.747 86.5955 266.575 86.4898 268.828 86.4898C271.081 86.4898 272.909 86.5955 272.909 86.7199Z" fill="#263238"/>
<path d="M311.266 86.7199C311.266 86.8443 303.229 86.9438 293.314 86.9438C283.398 86.9438 275.355 86.8443 275.355 86.7199C275.355 86.5955 283.392 86.4898 293.314 86.4898C303.235 86.4898 311.266 86.5955 311.266 86.7199Z" fill="#263238"/>
<path d="M220.68 92.6414C220.68 92.7658 219.769 92.8715 218.64 92.8715C217.51 92.8715 216.599 92.7658 216.599 92.6414C216.599 92.517 217.51 92.4112 218.64 92.4112C219.769 92.4112 220.68 92.517 220.68 92.6414Z" fill="#6880FF"/>
<path d="M220.842 98.824C220.842 98.9484 219.894 99.0542 218.721 99.0542C217.548 99.0542 216.599 98.9484 216.599 98.824C216.599 98.6996 217.548 98.5939 218.721 98.5939C219.894 98.5939 220.842 98.6996 220.842 98.824Z" fill="#6880FF"/>
<path d="M220.842 105.822C220.842 105.946 219.894 106.045 218.721 106.045C217.548 106.045 216.599 105.946 216.599 105.822C216.599 105.697 217.548 105.591 218.721 105.591C219.894 105.591 220.842 105.691 220.842 105.822Z" fill="#6880FF"/>
<path d="M259.524 105.492C259.524 105.622 252.436 105.722 243.693 105.722C234.951 105.722 227.862 105.622 227.862 105.492C227.862 105.361 234.951 105.268 243.693 105.268C252.436 105.268 259.524 105.367 259.524 105.492Z" fill="#263238"/>
<path d="M256.754 98.824C256.754 98.9484 249.989 99.0542 241.653 99.0542C233.316 99.0542 226.558 98.9484 226.558 98.824C226.558 98.6996 233.316 98.5939 241.653 98.5939C249.989 98.5939 256.754 98.6996 256.754 98.824Z" fill="#263238"/>
<path d="M329.712 92.3179C329.712 92.4423 306.686 92.5418 278.3 92.5418C249.915 92.5418 226.883 92.4423 226.883 92.3179C226.883 92.1935 249.896 92.0878 278.3 92.0878C306.705 92.0878 329.712 92.1873 329.712 92.3179Z" fill="#263238"/>
<path d="M380.68 71.568V159.295L366.996 170.671H438.562V71.568H380.68Z" fill="#FAFAFA"/>
<path d="M380.68 71.568C380.68 71.568 381.023 71.568 381.691 71.568H396.211L438.562 71.5058H438.687V71.6302C438.687 98.1087 438.687 132.692 438.724 170.733V170.895H366.584L366.902 170.628L380.593 159.251L380.536 159.363C380.568 133.134 380.593 111.189 380.611 95.7949C380.611 88.1132 380.643 82.0674 380.649 77.9373C380.649 75.8847 380.649 74.311 380.649 73.2349C380.649 72.7125 380.649 72.3082 380.649 72.0345C380.649 71.7608 380.649 71.6364 380.649 71.6364C380.649 71.6364 380.649 71.7795 380.649 72.0532C380.649 72.3268 380.649 72.7374 380.649 73.2971C380.649 74.3732 380.649 75.9593 380.649 78.0244C380.649 82.1607 380.649 88.2189 380.686 95.9069C380.686 111.283 380.724 133.227 380.755 159.388V159.45L380.705 159.494L367.027 170.883L366.927 170.615H438.494L438.331 170.777C438.331 132.735 438.331 98.1523 438.369 71.6737L438.494 71.7919L396.218 71.7297L384.736 71.568H380.68Z" fill="#263238"/>
<path d="M385.94 75.922C385.94 76.1533 385.871 76.3794 385.743 76.5717C385.614 76.764 385.43 76.9138 385.216 77.0023C385.002 77.0909 384.766 77.114 384.538 77.0689C384.311 77.0238 384.102 76.9124 383.938 76.7489C383.774 76.5853 383.662 76.377 383.617 76.1501C383.571 75.9233 383.595 75.6882 383.683 75.4745C383.772 75.2608 383.923 75.0782 384.115 74.9497C384.308 74.8212 384.535 74.7526 384.767 74.7526C385.078 74.7526 385.377 74.8758 385.597 75.0951C385.817 75.3144 385.94 75.6119 385.94 75.922Z" fill="#263238"/>
<path d="M390.184 75.922C390.184 76.1533 390.115 76.3794 389.986 76.5717C389.857 76.764 389.674 76.9138 389.459 77.0023C389.245 77.0909 389.009 77.114 388.782 77.0689C388.554 77.0238 388.345 76.9124 388.181 76.7489C388.017 76.5853 387.905 76.377 387.86 76.1501C387.815 75.9233 387.838 75.6882 387.927 75.4745C388.015 75.2608 388.166 75.0782 388.359 74.9497C388.552 74.8212 388.778 74.7526 389.01 74.7526C389.322 74.7526 389.62 74.8758 389.84 75.0951C390.06 75.3144 390.184 75.6119 390.184 75.922Z" fill="#263238"/>
<path d="M394.427 75.922C394.427 76.1533 394.358 76.3794 394.229 76.5717C394.1 76.764 393.917 76.9138 393.703 77.0023C393.488 77.0909 393.252 77.114 393.025 77.0689C392.797 77.0238 392.588 76.9124 392.424 76.7489C392.26 76.5853 392.148 76.377 392.103 76.1501C392.058 75.9233 392.081 75.6882 392.17 75.4745C392.259 75.2608 392.409 75.0782 392.602 74.9497C392.795 74.8212 393.022 74.7526 393.254 74.7526C393.565 74.7526 393.863 74.8758 394.083 75.0951C394.303 75.3144 394.427 75.6119 394.427 75.922Z" fill="#263238"/>
<path d="M422.65 102.96C422.65 103.066 415.312 103.147 406.264 103.147C397.216 103.147 389.878 103.066 389.878 102.96C389.878 102.855 397.21 102.774 406.264 102.774C415.318 102.774 422.65 102.855 422.65 102.96Z" fill="#6880FF"/>
<path d="M429.489 110.897C429.489 110.997 420.56 111.084 409.521 111.084C398.483 111.084 389.553 110.997 389.553 110.897C389.553 110.798 398.483 110.71 409.521 110.71C420.56 110.71 429.489 110.791 429.489 110.897Z" fill="#6880FF"/>
<path d="M431.112 140.504C431.112 140.61 421.589 140.691 409.846 140.691C398.102 140.691 388.58 140.61 388.58 140.504C388.58 140.398 398.102 140.318 409.846 140.318C421.589 140.318 431.112 140.405 431.112 140.504Z" fill="#6880FF"/>
<path d="M392.948 114.934C391.609 115.183 390.236 115.183 388.898 114.934C390.236 114.685 391.609 114.685 392.948 114.934Z" fill="#6880FF"/>
<path d="M406.919 115.015C406.919 115.12 404.947 115.201 402.551 115.201C400.155 115.201 398.183 115.12 398.183 115.015C401.111 114.766 404.054 114.766 406.982 115.015H406.919Z" fill="#6880FF"/>
<path d="M415.855 115.015C415.855 115.12 414.17 115.201 412.111 115.201C410.052 115.201 408.336 115.12 408.336 115.015C410.844 114.766 413.371 114.766 415.88 115.015H415.855Z" fill="#6880FF"/>
<path d="M392.392 120.084C391.241 120.333 390.049 120.333 388.898 120.084C390.049 119.835 391.241 119.835 392.392 120.084Z" fill="#6880FF"/>
<path d="M392.53 125.377C391.332 125.626 390.096 125.626 388.898 125.377C390.095 125.12 391.333 125.12 392.53 125.377Z" fill="#6880FF"/>
<path d="M392.53 131.361C391.332 131.61 390.096 131.61 388.898 131.361C390.096 131.112 391.332 131.112 392.53 131.361Z" fill="#6880FF"/>
<path d="M425.633 131.081C425.633 131.187 419.568 131.268 412.086 131.268C404.604 131.268 398.539 131.187 398.539 131.081C398.539 130.975 404.604 130.894 412.086 130.894C419.568 130.894 425.633 130.981 425.633 131.081Z" fill="#6880FF"/>
<path d="M423.255 125.377C423.255 125.477 417.471 125.564 410.339 125.564C403.206 125.564 397.422 125.477 397.422 125.377C397.422 125.278 403.2 125.184 410.339 125.184C417.477 125.184 423.255 125.271 423.255 125.377Z" fill="#6880FF"/>
<path d="M395.176 148.41C393.978 148.659 392.742 148.659 391.544 148.41C392.742 148.161 393.978 148.161 395.176 148.41Z" fill="#6880FF"/>
<path d="M395.176 154.4C393.978 154.649 392.742 154.649 391.544 154.4C392.741 154.143 393.979 154.143 395.176 154.4Z" fill="#6880FF"/>
<path d="M428.279 154.12C428.279 154.219 422.213 154.306 414.732 154.306C407.25 154.306 401.185 154.219 401.185 154.12C401.185 154.02 407.244 153.933 414.732 153.933C422.22 153.933 428.279 154.014 428.279 154.12Z" fill="#6880FF"/>
<path d="M425.92 148.41C425.92 148.516 420.135 148.596 413.003 148.596C405.871 148.596 400.08 148.516 400.08 148.41C400.08 148.304 405.865 148.223 413.003 148.223C420.142 148.223 425.92 148.304 425.92 148.41Z" fill="#6880FF"/>
<path d="M432.865 119.804C432.865 119.91 424.99 119.991 415.281 119.991C405.571 119.991 397.696 119.91 397.696 119.804C397.696 119.698 405.571 119.617 415.281 119.617C424.99 119.617 432.865 119.705 432.865 119.804Z" fill="#6880FF"/>
<path d="M438.019 80.5124C438.019 80.6119 425.308 80.6989 409.634 80.6989C393.959 80.6989 381.248 80.6119 381.248 80.5124C381.248 80.4128 393.952 80.3258 409.634 80.3258C425.315 80.3258 438.019 80.4066 438.019 80.5124Z" fill="#263238"/>
<path d="M401.852 98.1772C397.858 98.426 393.853 98.426 389.859 98.1772C389.859 98.0714 392.542 97.9905 395.856 97.9905C399.169 97.9905 401.852 98.0714 401.852 98.1772Z" fill="#6880FF"/>
<path d="M395.063 87.3481C395.063 87.4539 393.815 87.5347 392.236 87.5347C390.658 87.5347 389.41 87.4539 389.41 87.3481C391.286 87.0993 393.187 87.0993 395.063 87.3481Z" fill="#6880FF"/>
</svg>
